<svg width="105" height="59" viewBox="0 0 105 59" fill="none" xmlns="http://www.w3.org/2000/svg">
<path d="M93.2042 45.7898C94.1642 43.9598 96.0842 42.8198 98.3342 42.8198C101.844 42.8198 103.704 45.0098 103.704 48.6398V58.4198H99.8342V49.4798C99.8342 47.0498 98.9342 45.8498 97.0442 45.8498C95.2142 45.8498 93.7742 47.1398 93.7742 50.1098V58.4198H89.9342V49.4798C89.9342 47.0498 89.0342 45.8498 87.1442 45.8498C85.2842 45.8498 83.8742 47.1398 83.8742 50.1098V58.4198H80.0342V43.1798H83.8142V45.7598C84.5342 43.9898 86.3042 42.8198 88.4942 42.8198C91.0442 42.8198 92.4542 43.9898 93.2042 45.7898Z" fill="white"/>
<path d="M46.8987 40.5999V36.8499H50.9787V40.5999H46.8987ZM47.0187 58.4199V43.1799H50.8587V58.4199H47.0187Z" fill="white"/>
<path d="M14.9602 58.42L7.43022 49.09L4.46021 52.21V58.42H0.470215V37H4.46021V47.77L14.3602 37H18.9202L10.0702 46.3L19.7602 58.42H14.9602Z" fill="white"/>
<path d="M93.8059 6.17982V8.75983C94.5259 7.01983 96.2959 5.81982 98.6059 5.81982C102.086 5.81982 104.186 7.97982 104.186 11.6398V21.4198H100.346V12.5398C100.346 10.1098 99.2959 8.84982 97.2859 8.84982C95.3659 8.84982 93.8659 10.0798 93.8659 13.1398V21.4198H90.0259V6.17982H93.8059Z" fill="white"/>
<path d="M86.9176 13.7998C86.9176 18.7498 83.7076 21.7798 79.2076 21.7798C74.7076 21.7798 71.4976 18.7498 71.4976 13.7998C71.4976 8.87982 74.7076 5.81982 79.2076 5.81982C83.7076 5.81982 86.9176 8.87982 86.9176 13.7998ZM75.3376 13.7998C75.3376 17.0098 76.7176 18.9298 79.2076 18.9298C81.6676 18.9298 83.0776 17.0098 83.0776 13.7998C83.0776 10.6198 81.6676 8.66983 79.2076 8.66983C76.7176 8.66983 75.3376 10.6198 75.3376 13.7998Z" fill="white"/>
<path d="M60.5584 21.3899L54.6184 6.17993H58.5184L62.7484 17.6699H62.8084L66.8284 6.17993H70.6384L64.6984 21.6899C63.2584 25.4999 61.4884 26.9699 58.2784 26.9999C57.7684 26.9999 57.0484 26.9399 56.5084 26.8499V23.9399C56.9584 24.0299 57.1984 24.0299 57.5284 24.0299C59.0884 24.0299 59.7484 23.4899 60.5584 21.3899Z" fill="white"/>
<path d="M53.5234 16.6798C52.8634 19.9498 50.1334 21.7798 46.6534 21.7798C42.2134 21.7798 38.9434 18.8098 38.9434 13.8298C38.9434 8.84982 42.2734 5.81982 46.5634 5.81982C51.3334 5.81982 53.6134 9.44982 53.6134 13.4998V14.7298H42.6634C42.9034 17.4298 44.2834 18.9598 46.6534 18.9598C48.3934 18.9598 49.4734 18.1498 49.9834 16.6798H53.5234ZM46.5634 8.66983C44.5534 8.66983 43.2034 9.89983 42.7834 12.2398H49.9534C49.9534 10.3498 48.8734 8.66983 46.5634 8.66983Z" fill="white"/>
<path d="M36.7189 16.6798C36.0589 19.9498 33.3289 21.7798 29.8489 21.7798C25.4089 21.7798 22.1389 18.8098 22.1389 13.8298C22.1389 8.84982 25.4689 5.81982 29.7589 5.81982C34.5289 5.81982 36.8089 9.44982 36.8089 13.4998V14.7298H25.8589C26.0989 17.4298 27.4789 18.9598 29.8489 18.9598C31.5889 18.9598 32.6689 18.1498 33.1789 16.6798H36.7189ZM29.7589 8.66983C27.7489 8.66983 26.3989 9.89983 25.9789 12.2398H33.1489C33.1489 10.3498 32.0689 8.66983 29.7589 8.66983Z" fill="white"/>
<path d="M0 21.42V0H3.99V9H14.97V0H18.93V21.42H14.97V12.12H3.99V21.42H0Z" fill="white"/>
</svg>
