<svg width="105" height="59" viewBox="0 0 105 59" fill="none" xmlns="http://www.w3.org/2000/svg">
<path d="M68.7452 46.3699C69.7052 44.5399 71.6252 43.3999 73.8752 43.3999C77.3852 43.3999 79.2452 45.5899 79.2452 49.2199V58.9999H75.3752V50.0599C75.3752 47.6299 74.4752 46.4299 72.5852 46.4299C70.7552 46.4299 69.3152 47.7199 69.3152 50.6899V58.9999H65.4752V50.0599C65.4752 47.6299 64.5752 46.4299 62.6852 46.4299C60.8252 46.4299 59.4152 47.7199 59.4152 50.6899V58.9999H55.5752V43.7599H59.3552V46.3399C60.0752 44.5699 61.8452 43.3999 64.0352 43.3999C66.5852 43.3999 67.9952 44.5699 68.7452 46.3699Z" fill="black"/>
<path d="M47.4397 41.1799V37.4299H51.5197V41.1799H47.4397ZM47.5597 58.9999V43.7599H51.3997V58.9999H47.5597Z" fill="black"/>
<path d="M40.5012 59.0001L32.9712 49.6701L30.0012 52.7901V59.0001H26.0112V37.5801H30.0012V48.3501L39.9012 37.5801H44.4612L35.6112 46.8801L45.3012 59.0001H40.5012Z" fill="black"/>
<path d="M94.3469 6.7599V9.3399C95.0669 7.5999 96.8369 6.3999 99.1469 6.3999C102.627 6.3999 104.727 8.5599 104.727 12.2199V21.9999H100.887V13.1199C100.887 10.6899 99.8369 9.4299 97.8269 9.4299C95.9069 9.4299 94.4069 10.6599 94.4069 13.7199V21.9999H90.5669V6.7599H94.3469Z" fill="black"/>
<path d="M87.4586 14.3799C87.4586 19.3299 84.2486 22.3599 79.7486 22.3599C75.2486 22.3599 72.0386 19.3299 72.0386 14.3799C72.0386 9.4599 75.2486 6.3999 79.7486 6.3999C84.2486 6.3999 87.4586 9.4599 87.4586 14.3799ZM75.8786 14.3799C75.8786 17.5899 77.2586 19.5099 79.7486 19.5099C82.2086 19.5099 83.6186 17.5899 83.6186 14.3799C83.6186 11.1999 82.2086 9.2499 79.7486 9.2499C77.2586 9.2499 75.8786 11.1999 75.8786 14.3799Z" fill="black"/>
<path d="M61.0994 21.97L55.1594 6.76001H59.0594L63.2894 18.25H63.3494L67.3694 6.76001H71.1794L65.2394 22.27C63.7994 26.08 62.0294 27.55 58.8194 27.58C58.3094 27.58 57.5894 27.52 57.0494 27.43V24.52C57.4994 24.61 57.7394 24.61 58.0694 24.61C59.6294 24.61 60.2894 24.07 61.0994 21.97Z" fill="black"/>
<path d="M54.0644 17.2599C53.4044 20.5299 50.6744 22.3599 47.1944 22.3599C42.7544 22.3599 39.4844 19.3899 39.4844 14.4099C39.4844 9.4299 42.8144 6.3999 47.1044 6.3999C51.8744 6.3999 54.1544 10.0299 54.1544 14.0799V15.3099H43.2044C43.4444 18.0099 44.8244 19.5399 47.1944 19.5399C48.9344 19.5399 50.0144 18.7299 50.5244 17.2599H54.0644ZM47.1044 9.2499C45.0944 9.2499 43.7444 10.4799 43.3244 12.8199H50.4944C50.4944 10.9299 49.4144 9.2499 47.1044 9.2499Z" fill="black"/>
<path d="M37.2599 17.2599C36.5999 20.5299 33.8699 22.3599 30.3899 22.3599C25.9499 22.3599 22.6799 19.3899 22.6799 14.4099C22.6799 9.4299 26.0099 6.3999 30.2999 6.3999C35.0699 6.3999 37.3499 10.0299 37.3499 14.0799V15.3099H26.3999C26.6399 18.0099 28.0199 19.5399 30.3899 19.5399C32.1299 19.5399 33.2099 18.7299 33.7199 17.2599H37.2599ZM30.2999 9.2499C28.2899 9.2499 26.9399 10.4799 26.5199 12.8199H33.6899C33.6899 10.9299 32.6099 9.2499 30.2999 9.2499Z" fill="black"/>
<path d="M0.541016 22.0001V0.580078H4.53102V9.58008H15.511V0.580078H19.471V22.0001H15.511V12.7001H4.53102V22.0001H0.541016Z" fill="black"/>
</svg>
